<mxfile host="app.diagrams.net" modified="2022-06-17T04:36:56.538Z" agent="5.0 (Windows NT 10.0; Win64; x64) AppleWebKit/537.36 (KHTML, like Gecko) Chrome/102.0.5005.125 Safari/537.36" etag="18E4Ft-zAOB_Za3aCTHe" version="18.1.3" type="github">
  <diagram id="ACAl0iTsPe2t184P02yW" name="Page-1">
    <mxGraphModel dx="1243" dy="669" grid="1" gridSize="10" guides="1" tooltips="1" connect="1" arrows="1" fold="1" page="1" pageScale="1" pageWidth="827" pageHeight="1169" math="0" shadow="0">
      <root>
        <mxCell id="0" />
        <mxCell id="1" parent="0" />
        <mxCell id="cKBL-BMqb-sAwdRPisdt-4" style="edgeStyle=orthogonalEdgeStyle;rounded=0;orthogonalLoop=1;jettySize=auto;html=1;entryX=0.5;entryY=0;entryDx=0;entryDy=0;" edge="1" parent="1" source="cKBL-BMqb-sAwdRPisdt-1" target="cKBL-BMqb-sAwdRPisdt-3">
          <mxGeometry relative="1" as="geometry" />
        </mxCell>
        <mxCell id="cKBL-BMqb-sAwdRPisdt-1" value="Начало" style="rounded=1;whiteSpace=wrap;html=1;" vertex="1" parent="1">
          <mxGeometry x="354" y="70" width="120" height="60" as="geometry" />
        </mxCell>
        <mxCell id="cKBL-BMqb-sAwdRPisdt-7" style="edgeStyle=orthogonalEdgeStyle;rounded=0;orthogonalLoop=1;jettySize=auto;html=1;entryX=0.5;entryY=0;entryDx=0;entryDy=0;" edge="1" parent="1" source="cKBL-BMqb-sAwdRPisdt-3" target="cKBL-BMqb-sAwdRPisdt-6">
          <mxGeometry relative="1" as="geometry" />
        </mxCell>
        <mxCell id="cKBL-BMqb-sAwdRPisdt-3" value="Ввод даты" style="shape=parallelogram;perimeter=parallelogramPerimeter;whiteSpace=wrap;html=1;fixedSize=1;" vertex="1" parent="1">
          <mxGeometry x="354" y="150" width="120" height="60" as="geometry" />
        </mxCell>
        <mxCell id="cKBL-BMqb-sAwdRPisdt-13" style="edgeStyle=orthogonalEdgeStyle;rounded=0;orthogonalLoop=1;jettySize=auto;html=1;" edge="1" parent="1" source="cKBL-BMqb-sAwdRPisdt-6" target="cKBL-BMqb-sAwdRPisdt-8">
          <mxGeometry relative="1" as="geometry" />
        </mxCell>
        <mxCell id="cKBL-BMqb-sAwdRPisdt-6" value="инициализация&lt;br&gt;юлианского&lt;br&gt;календаря" style="rounded=0;whiteSpace=wrap;html=1;" vertex="1" parent="1">
          <mxGeometry x="354" y="230" width="120" height="60" as="geometry" />
        </mxCell>
        <mxCell id="cKBL-BMqb-sAwdRPisdt-10" style="edgeStyle=orthogonalEdgeStyle;rounded=0;orthogonalLoop=1;jettySize=auto;html=1;entryX=0.5;entryY=0;entryDx=0;entryDy=0;" edge="1" parent="1" source="cKBL-BMqb-sAwdRPisdt-8" target="cKBL-BMqb-sAwdRPisdt-9">
          <mxGeometry relative="1" as="geometry" />
        </mxCell>
        <mxCell id="cKBL-BMqb-sAwdRPisdt-8" value="Преобразование в грегорианский календарь" style="rounded=0;whiteSpace=wrap;html=1;" vertex="1" parent="1">
          <mxGeometry x="354" y="310" width="120" height="60" as="geometry" />
        </mxCell>
        <mxCell id="cKBL-BMqb-sAwdRPisdt-12" style="edgeStyle=orthogonalEdgeStyle;rounded=0;orthogonalLoop=1;jettySize=auto;html=1;entryX=0.5;entryY=0;entryDx=0;entryDy=0;" edge="1" parent="1" source="cKBL-BMqb-sAwdRPisdt-9" target="cKBL-BMqb-sAwdRPisdt-11">
          <mxGeometry relative="1" as="geometry" />
        </mxCell>
        <mxCell id="cKBL-BMqb-sAwdRPisdt-9" value="Вывод даты" style="shape=parallelogram;perimeter=parallelogramPerimeter;whiteSpace=wrap;html=1;fixedSize=1;" vertex="1" parent="1">
          <mxGeometry x="354" y="390" width="120" height="60" as="geometry" />
        </mxCell>
        <mxCell id="cKBL-BMqb-sAwdRPisdt-11" value="Конец" style="rounded=1;whiteSpace=wrap;html=1;" vertex="1" parent="1">
          <mxGeometry x="354" y="470" width="120" height="60" as="geometry" />
        </mxCell>
      </root>
    </mxGraphModel>
  </diagram>
</mxfile>
